<?xml version="1.0" encoding="UTF-8" standalone="no"?>
<!-- Generator: Adobe Illustrator 27.5.0, SVG Export Plug-In . SVG Version: 6.00 Build 0)  -->

<svg
   version="1.1"
   id="Layer_1"
   x="0px"
   y="0px"
   viewBox="0 0 1000 1000"
   style="enable-background:new 0 0 1000 1000;"
   xml:space="preserve"
   sodipodi:docname="INFOSEC LOGOnew.svg"
   inkscape:version="1.1 (c68e22c387, 2021-05-23)"
   xmlns:inkscape="http://www.inkscape.org/namespaces/inkscape"
   xmlns:sodipodi="http://sodipodi.sourceforge.net/DTD/sodipodi-0.dtd"
   xmlns="http://www.w3.org/2000/svg"
   xmlns:svg="http://www.w3.org/2000/svg"><defs
   id="defs161" /><sodipodi:namedview
   id="namedview159"
   pagecolor="#ffffff"
   bordercolor="#666666"
   borderopacity="1.0"
   inkscape:pageshadow="2"
   inkscape:pageopacity="0.0"
   inkscape:pagecheckerboard="0"
   showgrid="false"
   inkscape:zoom="0.676"
   inkscape:cx="500"
   inkscape:cy="500"
   inkscape:window-width="1920"
   inkscape:window-height="991"
   inkscape:window-x="-9"
   inkscape:window-y="1071"
   inkscape:window-maximized="1"
   inkscape:current-layer="Layer_1" />
<style
   type="text/css"
   id="style2">
	.st0{fill:#848484;}
	.st1{fill:url(#SVGID_1_);}
	.st2{fill:url(#SVGID_00000008119817285804074420000016472894307775860131_);}
	.st3{fill:url(#SVGID_00000123418787831589599670000016040777003843812750_);}
	.st4{fill:url(#SVGID_00000084510072982255679810000004501651972096835990_);}
	.st5{opacity:0.5;fill:url(#SVGID_00000131350690279181722230000006485825476113176497_);}
	.st6{fill:#FFFFFF;}
	.st7{fill:url(#SVGID_00000028309659989816224800000002951640301727434674_);}
	.st8{fill:url(#SVGID_00000050650017325797711940000016322315304798805437_);}
	.st9{fill:url(#SVGID_00000078725827744733140460000015811289410318768541_);}
	.st10{fill:url(#SVGID_00000064333385645931605640000007463165264934778028_);}
	.st11{fill:url(#SVGID_00000061461062902765096190000016619356032796343210_);}
	.st12{opacity:0.5;fill:url(#SVGID_00000054965339080776824860000007542994536163329962_);}
	.st13{fill:url(#SVGID_00000106829932212966288520000013709201649451593873_);}
	.st14{fill:url(#SVGID_00000026847022925180987420000016470327114375615634_);}
	.st15{fill:url(#SVGID_00000011740614216257382870000017964610831115932090_);}
	.st16{fill:url(#SVGID_00000013177227005043468430000006548667458881901191_);}
	.st17{fill:url(#SVGID_00000122698374827248271540000012464160861074125742_);}
	.st18{fill:url(#SVGID_00000101810249066001062910000005453904743212991157_);}
	.st19{opacity:0.5;fill:url(#SVGID_00000129914075349352538850000000740338552319982510_);}
	.st20{fill:url(#SVGID_00000090279723723069892310000009537470438403522737_);}
	.st21{fill:url(#SVGID_00000095296935104571567530000003179299000615981443_);}
</style>
<rect
   y="1029"
   class="st0"
   width="1000"
   height="1011"
   id="rect4" />
<linearGradient
   id="SVGID_1_"
   gradientUnits="userSpaceOnUse"
   x1="385.6499"
   y1="1518.7947"
   x2="570.4279"
   y2="1518.7947">
	<stop
   offset="1.080348e-03"
   style="stop-color:#999999"
   id="stop6" />
	<stop
   offset="1"
   style="stop-color:#2BF6E7"
   id="stop8" />
</linearGradient>
<path
   class="st1"
   d="M558.51,1552.79c-11.19,17.36-30.67,28.86-52.86,28.86c-31.31,0-57.27-22.9-62.06-52.86  c-0.52-3.26-0.8-6.6-0.8-10v-62.86c0-12.02-3.72-23.17-10.06-32.38c-10.31-14.96-27.54-24.77-47.08-24.77h0v120  c0,3.37,0.15,6.7,0.42,10c5.1,61.51,56.78,110,119.58,110c23.84,0,46.08-6.99,64.77-19.02c-7.5-10.84-11.91-23.97-11.91-38.12  V1552.79z"
   id="path11" />
<linearGradient
   id="SVGID_00000104708329685498982750000006716579984620896404_"
   gradientUnits="userSpaceOnUse"
   x1="440.8807"
   y1="1518.7947"
   x2="625.6588"
   y2="1518.7947">
	<stop
   offset="1.080348e-03"
   style="stop-color:#999999"
   id="stop13" />
	<stop
   offset="1"
   style="stop-color:#2BF6E7"
   id="stop15" />
</linearGradient>
<path
   style="fill:url(#SVGID_00000104708329685498982750000006716579984620896404_);"
   d="M505.65,1398.79c-3.37,0-6.7,0.15-10,0.42  c-20.05,1.66-38.72,8.27-54.77,18.6c7.5,10.84,11.91,23.97,11.91,38.12v28.86c9.47-14.69,24.89-25.19,42.86-28.06  c3.26-0.52,6.6-0.8,10-0.8c34.72,0,62.86,28.14,62.86,62.86v62.86c0,12.02,3.72,23.17,10.06,32.38  c10.31,14.96,27.54,24.77,47.08,24.77h0v-120C625.66,1452.62,571.83,1398.79,505.65,1398.79z"
   id="path18" />
<g
   id="g41">
	
		<linearGradient
   id="SVGID_00000138530778276819041150000000385478606689295038_"
   gradientUnits="userSpaceOnUse"
   x1="429.6275"
   y1="1382.14"
   x2="388.8358"
   y2="1327.9633">
		<stop
   offset="1.080348e-03"
   style="stop-color:#999999"
   id="stop20" />
		<stop
   offset="1"
   style="stop-color:#2BF6E7"
   id="stop22" />
	</linearGradient>
	<path
   style="fill:url(#SVGID_00000138530778276819041150000000385478606689295038_);"
   d="M408.73,1320.8   c-18.55,0-33.59,15.04-33.59,33.59s15.04,33.59,33.59,33.59c18.55,0,33.59-15.04,33.59-33.59S427.28,1320.8,408.73,1320.8z    M408.73,1371.18c-9.28,0-16.79-7.52-16.79-16.79s7.52-16.79,16.79-16.79s16.79,7.52,16.79,16.79S418.01,1371.18,408.73,1371.18z"
   id="path25" />
	
		<linearGradient
   id="SVGID_00000169547338377961627270000004446934589172312963_"
   gradientUnits="userSpaceOnUse"
   x1="398.2594"
   y1="1373.1698"
   x2="408.8229"
   y2="1300.9858">
		<stop
   offset="1.080348e-03"
   style="stop-color:#999999"
   id="stop27" />
		<stop
   offset="1"
   style="stop-color:#2BF6E7"
   id="stop29" />
	</linearGradient>
	<path
   style="fill:url(#SVGID_00000169547338377961627270000004446934589172312963_);"
   d="M426.6,1349.79c0,3.01-0.5,5.9-1.42,8.59   c-0.19,0.56-0.4,1.11-0.63,1.65c0.49-1.37,0.81-2.83,0.92-4.33c0.01-0.09,0.01-0.18,0.02-0.28c0.01-0.2,0.02-0.39,0.02-0.59   c0.01-0.1,0.01-0.2,0.01-0.3c0.01-0.1,0.01-0.19,0.01-0.29c-0.09-9.2-7.57-16.63-16.79-16.63c-9.27,0-16.79,7.52-16.79,16.79   s7.52,16.79,16.79,16.79c5.43,0,10.26-2.58,13.33-6.58c-4.51,6.6-11.96,10.91-20.37,10.91c-13.77,0-24.92-11.52-24.92-25.73   c0-2.56,0.36-5.04,1.04-7.37c0.72-2.5,1.8-4.83,3.18-6.95c0.01-0.02,0.02-0.04,0.04-0.07c0.92-1.4,1.97-2.71,3.13-3.9   c4.5-4.6,10.69-7.44,17.53-7.44C415.45,1324.06,426.6,1335.58,426.6,1349.79z"
   id="path32" />
	
		<linearGradient
   id="SVGID_00000074422580132650101510000008443654013799334021_"
   gradientUnits="userSpaceOnUse"
   x1="376.7615"
   y1="1351.7689"
   x2="425.5163"
   y2="1351.7689">
		<stop
   offset="1.080348e-03"
   style="stop-color:#999999"
   id="stop34" />
		<stop
   offset="1"
   style="stop-color:#2BF6E7"
   id="stop36" />
	</linearGradient>
	<path
   style="opacity:0.5;fill:url(#SVGID_00000074422580132650101510000008443654013799334021_);"
   d="M391.93,1354.39   c0,9.27,7.52,16.79,16.79,16.79c5.43,0,10.26-2.58,13.33-6.58c-4.51,6.6-11.96,10.91-20.37,10.91c-13.77,0-24.92-11.52-24.92-25.73   c0-2.56,0.36-5.04,1.04-7.37c4.14-8.54,12.67-14.4,22.52-14.4c13.91,0,25.19,11.68,25.19,26.09v0.12   c-0.09-9.2-7.57-16.63-16.79-16.63C399.45,1337.6,391.93,1345.12,391.93,1354.39z"
   id="path39" />
</g>
<path
   class="st6"
   d="M543.14,1684.56v6.69h-11.59c-9.15,0-14.01-4.37-14.01-13.44c0-7.74,4.12-13.44,14.01-13.44h0.92v-2.39h6.44  v22.59H543.14z M521.48,1655c0-2.01,1.56-3.39,3.59-3.39s3.59,1.39,3.59,3.39c0,2.24-1.66,3.44-3.59,3.44  S521.48,1657.25,521.48,1655z M532.47,1684.56v-13.51h-2.48c-3.77,0-7.73,2.48-7.73,6.78c0,4.39,3.59,6.73,7.4,6.73H532.47z   M531.46,1655c0-2.01,1.56-3.39,3.59-3.39c2.07,0,3.59,1.39,3.59,3.39c0,2.24-1.65,3.44-3.59,3.44S531.46,1657.25,531.46,1655z   M542.26,1684.56h9.61v-20.2h6.44v20.2h8.46v6.69h-24.51V1684.56z M546.17,1698.03c0-2.05,1.56-3.44,3.59-3.44  c2.02,0,3.59,1.39,3.59,3.44c0,2.2-1.66,3.39-3.59,3.39C547.82,1701.42,546.17,1700.22,546.17,1698.03z M556.14,1698.03  c0-2.05,1.56-3.44,3.59-3.44c2.07,0,3.59,1.39,3.59,3.44c0,2.2-1.65,3.39-3.59,3.39C557.8,1701.42,556.14,1700.22,556.14,1698.03z   M565.84,1684.56h5.7v-20.2h6.44v26.89h-12.14V1684.56z M571.08,1697.84c0-2.1,1.66-3.53,3.77-3.53c2.16,0,3.77,1.43,3.77,3.53  c0,2.34-1.75,3.58-3.77,3.58C572.83,1701.42,571.08,1700.18,571.08,1697.84z M582.58,1701.32l-0.46-6.69  c1.2,0.34,2.07,0.43,3.03,0.43c2.58,0,3.45-1.38,3.45-4.68v-26.03h6.44v20.2H600v6.69h-5.01c-0.37,7.35-3.08,10.51-9.15,10.51  C584.65,1701.75,583.36,1701.56,582.58,1701.32z M599.08,1684.56h5.01c-1.01-2.2-1.93-4.97-1.93-7.98c0-4.54,1.93-8.02,4.6-10.31  c2.11-1.81,5.1-2.82,8.37-2.82c3.4,0,6.44,1,9.56,2.63l-2.16,6.07c-1.93-1.15-4.46-2.05-6.62-2.05c-2.11,0-3.77,0.53-5.01,1.62  c-1.66,1.43-2.25,3.3-2.25,5.4c0,3.06,0.92,5.49,2.44,7.45h14.58v6.69h-26.58V1684.56z M532.46,1691.25  c-9.84,0.13-16.78-3.72-16.78-13.05c0-7.95,6.23-13.84,16.78-13.84l0,0 M532.46,1671.23h-1.67c-4.02,0-8.24,2.55-8.24,6.97  c0,4.51,3.86,6.36,7.93,6.36h1.98 M386.42,1690.54v-26.71h7.06v26.71H386.42z M413.56,1690.54v-16.18c0-2.06-0.34-3.46-1.03-4.18  c-0.69-0.72-1.86-1.09-3.53-1.09c-3.66,0-5.48,2.04-5.48,6.13v15.31h-7.06v-26.71h6.73v3.91c0.83-1.52,1.94-2.67,3.31-3.45  c1.37-0.78,3.15-1.17,5.32-1.17c1.27,0,2.44,0.19,3.53,0.57c1.09,0.38,2.02,0.95,2.8,1.71c0.78,0.76,1.39,1.69,1.85,2.8  c0.45,1.1,0.68,2.38,0.68,3.83v18.51H413.56z M424.91,1690.54v-21.71h-3.96v-4.99h3.96c0-6.51,3.78-9.77,11.35-9.77v5.7  c-0.91,0-1.64,0.06-2.2,0.19c-0.56,0.13-1,0.35-1.33,0.68s-0.55,0.75-0.68,1.28c-0.13,0.53-0.19,1.17-0.19,1.93h4.56v4.99h-4.56  v21.71H424.91z M448.9,1691.25c-2.17,0-4.11-0.34-5.81-1.03c-1.7-0.69-3.14-1.65-4.32-2.88c-1.18-1.23-2.07-2.71-2.69-4.45  c-0.62-1.74-0.92-3.64-0.92-5.7c0-2.1,0.32-4.02,0.95-5.75c0.63-1.74,1.55-3.22,2.74-4.45c1.19-1.23,2.63-2.18,4.32-2.85  c1.68-0.67,3.59-1.01,5.73-1.01c2.1,0,3.98,0.34,5.65,1.01c1.66,0.67,3.08,1.61,4.26,2.82c1.18,1.21,2.08,2.69,2.71,4.42  c0.63,1.74,0.95,3.67,0.95,5.81c0,2.14-0.32,4.06-0.95,5.78c-0.63,1.72-1.54,3.19-2.71,4.42c-1.18,1.23-2.61,2.18-4.29,2.85  C452.84,1690.91,450.97,1691.25,448.9,1691.25z M448.9,1685.33c4.31,0,6.46-2.71,6.46-8.14c0-5.39-2.15-8.09-6.46-8.09  c-4.31,0-6.46,2.7-6.46,8.09C442.44,1682.62,444.6,1685.33,448.9,1685.33z M480.82,1671.92c-0.18-1.23-0.64-2.12-1.38-2.69  c-0.74-0.56-1.87-0.84-3.39-0.84c-1.45,0-2.54,0.17-3.28,0.52c-0.74,0.34-1.11,0.93-1.11,1.76c0,0.72,0.37,1.3,1.11,1.74  c0.74,0.43,1.82,0.85,3.23,1.25c2.32,0.65,4.27,1.2,5.86,1.66c1.59,0.45,2.87,0.99,3.83,1.6c0.96,0.61,1.65,1.38,2.06,2.31  c0.42,0.92,0.62,2.16,0.62,3.72c0,2.39-1,4.37-2.99,5.94c-1.99,1.57-4.94,2.36-8.85,2.36c-1.92,0-3.66-0.22-5.21-0.65  c-1.56-0.43-2.89-1.06-3.99-1.87c-1.1-0.81-1.95-1.79-2.55-2.93c-0.6-1.14-0.91-2.42-0.95-3.83h7.27c0,1.27,0.5,2.24,1.49,2.93  c0.99,0.69,2.29,1.03,3.88,1.03c1.34,0,2.49-0.21,3.45-0.62c0.96-0.42,1.44-1.06,1.44-1.93c0-0.98-0.35-1.68-1.06-2.12  s-1.78-0.81-3.23-1.14c-2.61-0.58-4.7-1.18-6.3-1.82c-1.59-0.63-2.83-1.33-3.72-2.09c-0.89-0.76-1.48-1.59-1.79-2.5  c-0.31-0.9-0.46-1.92-0.46-3.04c0-1.01,0.21-1.97,0.62-2.88c0.42-0.9,1.08-1.7,1.98-2.39c0.9-0.69,2.08-1.24,3.53-1.66  c1.45-0.42,3.22-0.62,5.32-0.62c3.84,0,6.64,0.78,8.41,2.33c1.77,1.56,2.75,3.71,2.93,6.46H480.82z M496.56,1679.03  c0.11,2.03,0.7,3.64,1.76,4.83c1.07,1.19,2.47,1.79,4.21,1.79c1.16,0,2.18-0.26,3.07-0.79c0.89-0.52,1.46-1.26,1.71-2.2h7.27  c-0.83,2.75-2.28,4.87-4.34,6.35c-2.06,1.48-4.52,2.23-7.38,2.23c-8.9,0-13.35-4.85-13.35-14.55c0-2.06,0.29-3.93,0.87-5.59  c0.58-1.66,1.42-3.09,2.52-4.29c1.1-1.19,2.45-2.11,4.04-2.74c1.59-0.63,3.42-0.95,5.48-0.95c4.13,0,7.25,1.32,9.36,3.96  c2.12,2.64,3.18,6.62,3.18,11.94H496.56z M507.69,1674.58c-0.04-0.98-0.21-1.84-0.52-2.58c-0.31-0.74-0.71-1.36-1.22-1.85  c-0.51-0.49-1.09-0.85-1.74-1.09c-0.65-0.23-1.32-0.35-2.01-0.35c-1.41,0-2.63,0.52-3.66,1.55c-1.03,1.03-1.62,2.47-1.76,4.32  H507.69z M389.63,1660.12c2.2,0,3.98-1.78,3.98-3.98s-1.78-3.98-3.98-3.98c-2.2,0-3.98,1.78-3.98,3.98  S387.43,1660.12,389.63,1660.12z"
   id="path43" />
<linearGradient
   id="SVGID_00000129893390431992138100000010183923415204430479_"
   gradientUnits="userSpaceOnUse"
   x1="461.3959"
   y1="1519.0387"
   x2="549.2305"
   y2="1519.0387">
	<stop
   offset="1.080348e-03"
   style="stop-color:#999999"
   id="stop45" />
	<stop
   offset="1"
   style="stop-color:#2BF6E7"
   id="stop47" />
</linearGradient>
<path
   style="fill:url(#SVGID_00000129893390431992138100000010183923415204430479_);"
   d="M466.76,1537.33  c-0.81,0-1.58-0.47-1.91-1.27c-2.29-5.41-3.45-11.17-3.45-17.1c0-1.14,0.93-2.07,2.07-2.07c1.15,0,2.07,0.93,2.07,2.07  c0,5.37,1.05,10.58,3.12,15.48c0.45,1.05-0.05,2.27-1.1,2.72C467.3,1537.28,467.03,1537.33,466.76,1537.33z M544.47,1541.01  c1.96-4.17,3.25-8.59,3.82-13.15c0.14-1.14-0.66-2.17-1.8-2.32c-1.13-0.14-2.17,0.66-2.31,1.8c-0.52,4.13-1.68,8.13-3.46,11.91  c-0.49,1.04-0.04,2.27,0.99,2.76c0.29,0.13,0.58,0.2,0.88,0.2C543.38,1542.2,544.12,1541.76,544.47,1541.01z M549.23,1518.97  c0-17.69-10.53-33.57-26.82-40.46c-1.05-0.45-2.27,0.05-2.72,1.1c-0.45,1.06,0.05,2.27,1.1,2.72c14.76,6.24,24.29,20.63,24.29,36.65  c0,1.15,0.93,2.07,2.07,2.07S549.23,1520.11,549.23,1518.97z M467.74,1505.89c5.56-15.97,20.65-26.7,37.57-26.7  c1.15,0,2.07-0.93,2.07-2.07c0-1.15-0.93-2.07-2.07-2.07c-18.68,0-35.35,11.85-41.49,29.48c-0.38,1.08,0.2,2.26,1.28,2.64  c0.23,0.08,0.46,0.12,0.68,0.12C466.64,1507.29,467.44,1506.75,467.74,1505.89z M472.34,1525.11c1.14-0.14,1.95-1.17,1.81-2.31  c-0.15-1.26-0.23-2.55-0.23-3.83c0-11.14,5.99-21.55,15.63-27.16c0.99-0.58,1.32-1.85,0.75-2.83c-0.58-0.99-1.85-1.32-2.83-0.75  c-10.91,6.35-17.69,18.13-17.69,30.74c0,1.45,0.09,2.9,0.26,4.33c0.13,1.05,1.02,1.82,2.06,1.82  C472.17,1525.12,472.25,1525.12,472.34,1525.11z M527.52,1493.83c0.7-0.9,0.54-2.21-0.36-2.91c-6.29-4.91-13.85-7.5-21.85-7.5  c-1.72,0-3.45,0.12-5.14,0.37c-1.13,0.16-1.92,1.22-1.75,2.35c0.16,1.13,1.22,1.92,2.35,1.75c1.49-0.22,3.02-0.33,4.54-0.33  c7.07,0,13.74,2.29,19.3,6.63c0.38,0.3,0.83,0.44,1.27,0.44C526.5,1494.63,527.11,1494.36,527.52,1493.83z M528.93,1555.87  c6.05-7.38,10.33-17.28,11.74-27.18c1.55-10.86-0.41-21.18-5.51-29.05c-0.62-0.96-1.91-1.24-2.87-0.61  c-0.96,0.62-1.23,1.91-0.61,2.87c9.99,15.41,4.82,38.2-5.95,51.34c-0.73,0.89-0.6,2.19,0.29,2.92c0.39,0.32,0.85,0.47,1.31,0.47  C527.93,1556.63,528.52,1556.37,528.93,1555.87z M507.54,1533.64c1.14-0.04,2.04-1.01,1.99-2.15c-0.16-4.31-0.78-8.48-1.83-12.42  c-0.3-1.11-1.43-1.76-2.54-1.47c-1.11,0.3-1.76,1.43-1.47,2.54c0.97,3.63,1.54,7.5,1.69,11.5c0.04,1.12,0.96,1.99,2.07,1.99  C507.48,1533.64,507.51,1533.64,507.54,1533.64z M504.57,1561.58c2.91-7.27,4.73-15.07,5.26-22.57c0.08-1.14-0.78-2.13-1.92-2.21  c-1.15-0.08-2.13,0.78-2.21,1.92c-0.5,7.07-2.22,14.45-4.97,21.32c-0.43,1.06,0.09,2.27,1.15,2.69c0.25,0.1,0.51,0.15,0.77,0.15  C503.46,1562.89,504.24,1562.39,504.57,1561.58z M474.57,1545.6c1.29-4.51,1.66-9.46,1.06-14.32c-0.14-1.14-1.18-1.94-2.31-1.8  c-1.14,0.14-1.94,1.18-1.8,2.31c0.53,4.31,0.21,8.69-0.93,12.66c-0.32,1.1,0.32,2.25,1.42,2.57c0.19,0.05,0.38,0.08,0.57,0.08  C473.47,1547.1,474.3,1546.5,474.57,1545.6z M532.74,1518.97c0-9.05-4.46-17.51-11.93-22.63c-0.95-0.65-2.24-0.41-2.88,0.54  c-0.65,0.94-0.41,2.23,0.54,2.88c6.34,4.35,10.13,11.53,10.13,19.22c0,1.15,0.93,2.07,2.07,2.07  C531.81,1521.04,532.74,1520.11,532.74,1518.97z M482.03,1518.97c0-12.84,10.45-23.28,23.28-23.28c0.8,0,1.61,0.04,2.39,0.12  c1.14,0.12,2.16-0.71,2.27-1.85c0.12-1.14-0.71-2.16-1.85-2.27c-0.93-0.09-1.88-0.14-2.82-0.14c-15.12,0-27.43,12.3-27.43,27.43  c0,1.15,0.93,2.07,2.07,2.07C481.1,1521.04,482.03,1520.11,482.03,1518.97z M481.25,1552.48c1.86-4.96,2.8-10.18,2.8-15.52  c0-3.49-0.41-6.96-1.21-10.33c-0.27-1.11-1.39-1.8-2.5-1.53c-1.11,0.27-1.8,1.39-1.53,2.5c0.73,3.05,1.1,6.2,1.1,9.36  c0,4.84-0.85,9.57-2.54,14.06c-0.4,1.07,0.14,2.27,1.21,2.67c0.24,0.09,0.49,0.13,0.73,0.13  C480.15,1553.82,480.94,1553.31,481.25,1552.48z M512,1562.66c11.43-7.86,18.77-19.89,20.65-33.86c0.15-1.14-0.64-2.18-1.78-2.33  c-1.14-0.15-2.18,0.64-2.33,1.78c-1.72,12.8-8.43,23.81-18.89,31c-0.94,0.65-1.18,1.94-0.53,2.88c0.4,0.58,1.05,0.9,1.71,0.9  C511.23,1563.03,511.64,1562.91,512,1562.66z M492.24,1512.16c2.55-4.89,7.56-7.93,13.08-7.93c3.68,0,7.2,1.36,9.92,3.84  c0.85,0.77,2.16,0.71,2.93-0.14c0.77-0.85,0.71-2.16-0.14-2.93c-3.48-3.17-8-4.92-12.71-4.92c-7.06,0-13.48,3.89-16.75,10.16  c-0.53,1.01-0.14,2.27,0.88,2.8c0.31,0.16,0.63,0.24,0.96,0.24C491.14,1513.27,491.87,1512.86,492.24,1512.16z M491.13,1540.79h0.03  c1.13,0,2.07-0.91,2.06-2.04c-0.01-6.31-0.87-12.59-2.54-18.65c-0.36-1.31-1.91-1.98-3.17-1.16c-0.76,0.49-1.04,1.48-0.8,2.35  c1.56,5.66,2.35,11.52,2.37,17.41C489.07,1539.86,489.98,1540.79,491.13,1540.79z M489.09,1557.5c1.51-3.32,2.57-6.83,3.16-10.42  c0.19-1.13-0.58-2.2-1.71-2.38c-1.13-0.19-2.2,0.58-2.38,1.71c-0.53,3.23-1.49,6.39-2.85,9.38c-0.47,1.04-0.01,2.27,1.03,2.75  c0.28,0.13,0.57,0.19,0.86,0.19C487.99,1558.72,488.74,1558.27,489.09,1557.5z M525.96,1529.84c0.34-5.44-0.39-10.78-2.18-15.88  c-0.38-1.08-1.56-1.65-2.64-1.27c-1.08,0.38-1.65,1.56-1.27,2.64c1.6,4.57,2.26,9.37,1.95,14.25c-0.07,1.14,0.8,2.13,1.94,2.2  c0.04,0,0.09,0,0.13,0C524.98,1531.78,525.89,1530.94,525.96,1529.84z M496.4,1560.25c1.05-2.36,1.95-4.81,2.66-7.29  c0.32-1.1-0.32-2.25-1.42-2.57c-1.1-0.32-2.25,0.32-2.57,1.41c-0.66,2.3-1.5,4.57-2.47,6.76c-0.47,1.05,0,2.27,1.05,2.74  c0.27,0.12,0.56,0.18,0.84,0.18C495.3,1561.48,496.06,1561.02,496.4,1560.25z M500.48,1546.2c0.53-3.54,0.69-7.15,0.46-10.75  c-0.11-1.71-0.31-3.44-0.59-5.13c-0.19-1.13-1.26-1.89-2.38-1.71c-1.13,0.19-1.89,1.26-1.71,2.39c0.26,1.55,0.44,3.13,0.54,4.71  c0.21,3.31,0.07,6.63-0.42,9.87c-0.17,1.13,0.61,2.19,1.74,2.36c0.11,0.02,0.21,0.02,0.31,0.02  C499.44,1547.97,500.32,1547.23,500.48,1546.2z M518.7,1532.35c0-11.18-3.51-24.25-13.39-24.25c-5.99,0-10.86,4.87-10.86,10.86  c0,0.2,0.01,0.41,0.02,0.61c0.06,1.14,1.03,2.02,2.19,1.95c1.14-0.06,2.02-1.04,1.95-2.19c-0.01-0.12-0.01-0.25-0.01-0.37  c0-3.7,3.01-6.72,6.72-6.72c7.31,0,9.25,13.15,9.25,20.1c0,1.15,0.93,2.07,2.07,2.07C517.78,1534.42,518.7,1533.5,518.7,1532.35z   M514.57,1551.86c1.72-3.86,2.92-7.93,3.57-12.11c0.18-1.13-0.6-2.19-1.73-2.37c-1.13-0.18-2.19,0.6-2.37,1.73  c-0.59,3.81-1.69,7.53-3.26,11.06c-0.47,1.05,0,2.27,1.05,2.74c0.27,0.12,0.56,0.18,0.84,0.18  C513.47,1553.09,514.23,1552.63,514.57,1551.86z"
   id="path50" />
<linearGradient
   id="SVGID_00000128463607431689217180000005871666361419315636_"
   gradientUnits="userSpaceOnUse"
   x1="385.6499"
   y1="480.7947"
   x2="570.4279"
   y2="480.7947">
	<stop
   offset="1.080348e-03"
   style="stop-color:#22006A"
   id="stop52" />
	<stop
   offset="1"
   style="stop-color:#2BF6E7"
   id="stop54" />
</linearGradient>

<linearGradient
   id="SVGID_00000085219443367675614490000006671552511123239559_"
   gradientUnits="userSpaceOnUse"
   x1="440.8807"
   y1="480.7947"
   x2="625.6588"
   y2="480.7947">
	<stop
   offset="1.298195e-07"
   style="stop-color:#0D006A"
   id="stop59" />
	<stop
   offset="1"
   style="stop-color:#2BF6E7"
   id="stop61" />
</linearGradient>


<linearGradient
   id="SVGID_00000108300493146542273910000000156131674156934530_"
   gradientUnits="userSpaceOnUse"
   x1="388.6499"
   y1="636.6816"
   x2="628.6588"
   y2="636.6816">
	<stop
   offset="1.298195e-07"
   style="stop-color:#0D006A"
   id="stop89" />
	<stop
   offset="1"
   style="stop-color:#2BF6E7"
   id="stop91" />
</linearGradient>

<linearGradient
   id="SVGID_00000000903184346208521680000011267479735548313248_"
   gradientUnits="userSpaceOnUse"
   x1="461.3959"
   y1="481.0386"
   x2="549.2305"
   y2="481.0386">
	<stop
   offset="1.298195e-07"
   style="stop-color:#0D006A"
   id="stop96" />
	<stop
   offset="1"
   style="stop-color:#2BF6E7"
   id="stop98" />
</linearGradient>
<g
   id="g1200"
   transform="matrix(2.9971258,0,0,2.9971258,-1005.1189,-822.18362)"><path
     style="fill:#fff;fill-opacity:1"
     d="m 558.51,514.79 c -11.19,17.36 -30.67,28.86 -52.86,28.86 -31.31,0 -57.27,-22.9 -62.06,-52.86 -0.52,-3.26 -0.8,-6.6 -0.8,-10 v -62.86 c 0,-12.02 -3.72,-23.17 -10.06,-32.38 -10.31,-14.96 -27.54,-24.77 -47.08,-24.77 v 0 120 c 0,3.37 0.15,6.7 0.42,10 5.1,61.51 56.78,110 119.58,110 23.84,0 46.08,-6.99 64.77,-19.02 -7.5,-10.84 -11.91,-23.97 -11.91,-38.12 z"
     id="path57" /><path
     style="fill:#fff;fill-opacity:1"
     d="m 505.65,360.79 c -3.37,0 -6.7,0.15 -10,0.42 -20.05,1.66 -38.72,8.27 -54.77,18.6 7.5,10.84 11.91,23.97 11.91,38.12 v 28.86 c 9.47,-14.69 24.89,-25.19 42.86,-28.06 3.26,-0.52 6.6,-0.8 10,-0.8 34.72,0 62.86,28.14 62.86,62.86 v 62.86 c 0,12.02 3.72,23.17 10.06,32.38 10.31,14.96 27.54,24.77 47.08,24.77 v 0 -120 c 0.01,-66.18 -53.82,-120.01 -120,-120.01 z"
     id="path64" /><g
     id="g87"
     style="fill:#fff;fill-opacity:1">
	
		<linearGradient
   id="SVGID_00000063602380615643613790000005271710764931966603_"
   gradientUnits="userSpaceOnUse"
   x1="429.6275"
   y1="344.14001"
   x2="388.83578"
   y2="289.96329">
		<stop
   offset="1.080348e-03"
   style="stop-color:#22006A"
   id="stop66" />
		<stop
   offset="1"
   style="stop-color:#2BF6E7"
   id="stop68" />
	</linearGradient>
	<path
   style="fill:#fff;fill-opacity:1"
   d="m 408.73,282.8 c -18.55,0 -33.59,15.04 -33.59,33.59 0,18.55 15.04,33.59 33.59,33.59 18.55,0 33.59,-15.04 33.59,-33.59 0,-18.55 -15.04,-33.59 -33.59,-33.59 z m 0,50.38 c -9.28,0 -16.79,-7.52 -16.79,-16.79 0,-9.28 7.52,-16.79 16.79,-16.79 9.27,0 16.79,7.52 16.79,16.79 0.01,9.28 -7.51,16.79 -16.79,16.79 z"
   id="path71" />
	
		<linearGradient
   id="SVGID_00000151535169216624384200000003068745631023253181_"
   gradientUnits="userSpaceOnUse"
   x1="398.2594"
   y1="335.16989"
   x2="408.82291"
   y2="262.98581">
		<stop
   offset="1.080348e-03"
   style="stop-color:#22006A"
   id="stop73" />
		<stop
   offset="1"
   style="stop-color:#2BF6E7"
   id="stop75" />
	</linearGradient>
	<path
   style="fill:#fff;fill-opacity:1"
   d="m 426.6,311.79 c 0,3.01 -0.5,5.9 -1.42,8.59 -0.19,0.56 -0.4,1.11 -0.63,1.65 0.49,-1.37 0.81,-2.83 0.92,-4.33 0.01,-0.09 0.01,-0.18 0.02,-0.28 0.01,-0.2 0.02,-0.39 0.02,-0.59 0.01,-0.1 0.01,-0.2 0.01,-0.3 0.01,-0.1 0.01,-0.2 0.01,-0.29 -0.09,-9.2 -7.57,-16.63 -16.79,-16.63 -9.27,0 -16.79,7.52 -16.79,16.79 0,9.27 7.52,16.79 16.79,16.79 5.43,0 10.26,-2.58 13.33,-6.58 -4.51,6.6 -11.96,10.91 -20.37,10.91 -13.77,0 -24.92,-11.52 -24.92,-25.73 0,-2.56 0.36,-5.04 1.04,-7.37 0.72,-2.5 1.8,-4.83 3.18,-6.95 0.01,-0.02 0.02,-0.04 0.04,-0.07 0.92,-1.4 1.97,-2.71 3.13,-3.9 4.5,-4.6 10.69,-7.44 17.53,-7.44 13.75,0 24.9,11.52 24.9,25.73 z"
   id="path78" />
	
		<linearGradient
   id="SVGID_00000031916643017935252660000011630073044621609648_"
   gradientUnits="userSpaceOnUse"
   x1="376.76151"
   y1="313.76889"
   x2="425.5163"
   y2="313.76889">
		<stop
   offset="1.080348e-03"
   style="stop-color:#22006A"
   id="stop80" />
		<stop
   offset="1"
   style="stop-color:#2BF6E7"
   id="stop82" />
	</linearGradient>
	<path
   style="opacity:0.5;fill:#fff;fill-opacity:1"
   d="m 391.93,316.39 c 0,9.27 7.52,16.79 16.79,16.79 5.43,0 10.26,-2.58 13.33,-6.58 -4.51,6.6 -11.96,10.91 -20.37,10.91 -13.77,0 -24.92,-11.52 -24.92,-25.73 0,-2.56 0.36,-5.04 1.04,-7.37 4.14,-8.54 12.67,-14.4 22.52,-14.4 13.91,0 25.19,11.68 25.19,26.09 v 0.12 c -0.09,-9.2 -7.57,-16.63 -16.79,-16.63 -9.27,0.01 -16.79,7.53 -16.79,16.8 z"
   id="path85" />
</g><path
     style="fill:#fff;fill-opacity:1"
     d="m 466.76,499.33 c -0.81,0 -1.58,-0.47 -1.91,-1.27 -2.29,-5.41 -3.45,-11.17 -3.45,-17.1 0,-1.14 0.93,-2.07 2.07,-2.07 1.15,0 2.07,0.93 2.07,2.07 0,5.37 1.05,10.58 3.12,15.48 0.45,1.05 -0.05,2.27 -1.1,2.72 -0.26,0.12 -0.53,0.17 -0.8,0.17 z m 77.71,3.68 c 1.96,-4.17 3.25,-8.59 3.82,-13.15 0.14,-1.14 -0.66,-2.17 -1.8,-2.32 -1.13,-0.14 -2.17,0.66 -2.31,1.8 -0.52,4.13 -1.68,8.13 -3.46,11.91 -0.49,1.04 -0.04,2.27 0.99,2.76 0.29,0.13 0.58,0.2 0.88,0.2 0.79,-0.01 1.53,-0.45 1.88,-1.2 z m 4.76,-22.04 c 0,-17.69 -10.53,-33.57 -26.82,-40.46 -1.05,-0.45 -2.27,0.05 -2.72,1.1 -0.45,1.06 0.05,2.27 1.1,2.72 14.76,6.24 24.29,20.63 24.29,36.65 0,1.15 0.93,2.07 2.07,2.07 1.14,0 2.08,-0.94 2.08,-2.08 z m -81.49,-13.08 c 5.56,-15.97 20.65,-26.7 37.57,-26.7 1.15,0 2.07,-0.93 2.07,-2.07 0,-1.15 -0.93,-2.07 -2.07,-2.07 -18.68,0 -35.35,11.85 -41.49,29.48 -0.38,1.08 0.2,2.26 1.28,2.64 0.23,0.08 0.46,0.12 0.68,0.12 0.86,0 1.66,-0.54 1.96,-1.4 z m 4.6,19.22 c 1.14,-0.14 1.95,-1.17 1.81,-2.31 -0.15,-1.26 -0.23,-2.55 -0.23,-3.83 0,-11.14 5.99,-21.55 15.63,-27.16 0.99,-0.58 1.32,-1.85 0.75,-2.83 -0.58,-0.99 -1.85,-1.32 -2.83,-0.75 -10.91,6.35 -17.69,18.13 -17.69,30.74 0,1.45 0.09,2.9 0.26,4.33 0.13,1.05 1.02,1.82 2.06,1.82 0.07,0 0.15,0 0.24,-0.01 z m 55.18,-31.28 c 0.7,-0.9 0.54,-2.21 -0.36,-2.91 -6.29,-4.91 -13.85,-7.5 -21.85,-7.5 -1.72,0 -3.45,0.12 -5.14,0.37 -1.13,0.16 -1.92,1.22 -1.75,2.35 0.16,1.13 1.22,1.92 2.35,1.75 1.49,-0.22 3.02,-0.33 4.54,-0.33 7.07,0 13.74,2.29 19.3,6.63 0.38,0.3 0.83,0.44 1.27,0.44 0.62,0 1.23,-0.27 1.64,-0.8 z m 1.41,62.04 c 6.05,-7.38 10.33,-17.28 11.74,-27.18 1.55,-10.86 -0.41,-21.18 -5.51,-29.05 -0.62,-0.96 -1.91,-1.24 -2.87,-0.61 -0.96,0.62 -1.23,1.91 -0.61,2.87 9.99,15.41 4.82,38.2 -5.95,51.34 -0.73,0.89 -0.6,2.19 0.29,2.92 0.39,0.32 0.85,0.47 1.31,0.47 0.6,0 1.19,-0.26 1.6,-0.76 z m -21.39,-22.23 c 1.14,-0.04 2.04,-1.01 1.99,-2.15 -0.16,-4.31 -0.78,-8.48 -1.83,-12.42 -0.3,-1.11 -1.43,-1.76 -2.54,-1.47 -1.11,0.3 -1.76,1.43 -1.47,2.54 0.97,3.63 1.54,7.5 1.69,11.5 0.04,1.12 0.96,1.99 2.07,1.99 0.03,0.01 0.06,0.01 0.09,0.01 z m -2.97,27.94 c 2.91,-7.27 4.73,-15.07 5.26,-22.57 0.08,-1.14 -0.78,-2.13 -1.92,-2.21 -1.15,-0.08 -2.13,0.78 -2.21,1.92 -0.5,7.07 -2.22,14.45 -4.97,21.32 -0.43,1.06 0.09,2.27 1.15,2.69 0.25,0.1 0.51,0.15 0.77,0.15 0.81,0.01 1.59,-0.49 1.92,-1.3 z m -30,-15.98 c 1.29,-4.51 1.66,-9.46 1.06,-14.32 -0.14,-1.14 -1.18,-1.94 -2.31,-1.8 -1.14,0.14 -1.94,1.18 -1.8,2.31 0.53,4.31 0.21,8.69 -0.93,12.66 -0.32,1.1 0.32,2.25 1.42,2.57 0.19,0.05 0.38,0.08 0.57,0.08 0.89,0 1.72,-0.6 1.99,-1.5 z m 58.17,-26.63 c 0,-9.05 -4.46,-17.51 -11.93,-22.63 -0.95,-0.65 -2.24,-0.41 -2.88,0.54 -0.65,0.94 -0.41,2.23 0.54,2.88 6.34,4.35 10.13,11.53 10.13,19.22 0,1.15 0.93,2.07 2.07,2.07 1.14,-0.01 2.07,-0.94 2.07,-2.08 z m -50.71,0 c 0,-12.84 10.45,-23.28 23.28,-23.28 0.8,0 1.61,0.04 2.39,0.12 1.14,0.12 2.16,-0.71 2.27,-1.85 0.12,-1.14 -0.71,-2.16 -1.85,-2.27 -0.93,-0.1 -1.88,-0.14 -2.82,-0.14 -15.12,0 -27.43,12.3 -27.43,27.43 0,1.15 0.93,2.07 2.07,2.07 1.16,-0.01 2.09,-0.94 2.09,-2.08 z m -0.78,33.51 c 1.86,-4.96 2.8,-10.18 2.8,-15.52 0,-3.49 -0.41,-6.96 -1.21,-10.33 -0.27,-1.11 -1.39,-1.8 -2.5,-1.53 -1.11,0.27 -1.8,1.39 -1.53,2.5 0.73,3.05 1.1,6.2 1.1,9.36 0,4.84 -0.85,9.57 -2.54,14.06 -0.4,1.07 0.14,2.27 1.21,2.67 0.24,0.09 0.49,0.13 0.73,0.13 0.84,0 1.63,-0.51 1.94,-1.34 z M 512,524.66 c 11.43,-7.86 18.77,-19.89 20.65,-33.86 0.15,-1.14 -0.64,-2.18 -1.78,-2.33 -1.14,-0.15 -2.18,0.64 -2.33,1.78 -1.72,12.8 -8.43,23.81 -18.89,31 -0.94,0.65 -1.18,1.94 -0.53,2.88 0.4,0.58 1.05,0.9 1.71,0.9 0.4,0 0.81,-0.12 1.17,-0.37 z m -19.76,-50.5 c 2.55,-4.89 7.56,-7.93 13.08,-7.93 3.68,0 7.2,1.36 9.92,3.84 0.85,0.77 2.16,0.71 2.93,-0.14 0.77,-0.85 0.71,-2.16 -0.14,-2.93 -3.48,-3.17 -8,-4.92 -12.71,-4.92 -7.06,0 -13.48,3.89 -16.75,10.16 -0.53,1.01 -0.14,2.27 0.88,2.8 0.31,0.16 0.63,0.24 0.96,0.24 0.73,-0.01 1.46,-0.42 1.83,-1.12 z m -1.11,28.63 h 0.03 c 1.13,0 2.07,-0.91 2.06,-2.04 -0.01,-6.31 -0.87,-12.59 -2.54,-18.65 -0.36,-1.31 -1.91,-1.98 -3.17,-1.16 -0.76,0.49 -1.04,1.48 -0.8,2.35 1.56,5.66 2.35,11.52 2.37,17.41 -0.01,1.16 0.9,2.09 2.05,2.09 z m -2.04,16.71 c 1.51,-3.32 2.57,-6.83 3.16,-10.42 0.19,-1.13 -0.58,-2.2 -1.71,-2.38 -1.13,-0.19 -2.2,0.58 -2.38,1.71 -0.53,3.23 -1.49,6.39 -2.85,9.38 -0.47,1.04 -0.01,2.27 1.03,2.75 0.28,0.13 0.57,0.19 0.86,0.19 0.79,-0.01 1.54,-0.46 1.89,-1.23 z m 36.87,-27.66 c 0.34,-5.44 -0.39,-10.78 -2.18,-15.88 -0.38,-1.08 -1.56,-1.65 -2.64,-1.27 -1.08,0.38 -1.65,1.56 -1.27,2.64 1.6,4.57 2.26,9.37 1.95,14.25 -0.07,1.14 0.8,2.13 1.94,2.2 0.04,0 0.09,0 0.13,0 1.09,0 2,-0.84 2.07,-1.94 z m -29.56,30.41 c 1.05,-2.36 1.95,-4.81 2.66,-7.29 0.32,-1.1 -0.32,-2.25 -1.42,-2.57 -1.1,-0.32 -2.25,0.32 -2.57,1.41 -0.66,2.3 -1.5,4.57 -2.47,6.76 -0.47,1.05 0,2.27 1.05,2.74 0.27,0.12 0.56,0.18 0.84,0.18 0.81,0 1.57,-0.46 1.91,-1.23 z m 4.08,-14.05 c 0.53,-3.54 0.69,-7.15 0.46,-10.75 -0.11,-1.71 -0.31,-3.44 -0.59,-5.13 -0.19,-1.13 -1.26,-1.89 -2.38,-1.71 -1.13,0.19 -1.89,1.26 -1.71,2.39 0.26,1.55 0.44,3.13 0.54,4.71 0.21,3.31 0.07,6.63 -0.42,9.87 -0.17,1.13 0.61,2.19 1.74,2.36 0.11,0.02 0.21,0.02 0.31,0.02 1.01,0.01 1.89,-0.73 2.05,-1.76 z m 18.22,-13.85 c 0,-11.18 -3.51,-24.25 -13.39,-24.25 -5.99,0 -10.86,4.87 -10.86,10.86 0,0.2 0.01,0.41 0.02,0.61 0.06,1.14 1.03,2.02 2.19,1.95 1.14,-0.06 2.02,-1.04 1.95,-2.19 -0.01,-0.12 -0.01,-0.25 -0.01,-0.37 0,-3.7 3.01,-6.72 6.72,-6.72 7.31,0 9.25,13.15 9.25,20.1 0,1.15 0.93,2.07 2.07,2.07 1.14,0.01 2.06,-0.91 2.06,-2.06 z m -4.13,19.51 c 1.72,-3.86 2.92,-7.93 3.57,-12.11 0.18,-1.13 -0.6,-2.19 -1.73,-2.37 -1.13,-0.18 -2.19,0.6 -2.37,1.73 -0.59,3.81 -1.69,7.53 -3.26,11.06 -0.47,1.05 0,2.27 1.05,2.74 0.27,0.12 0.56,0.18 0.84,0.18 0.8,0 1.56,-0.46 1.9,-1.23 z"
     id="path101" /></g>
<linearGradient
   id="SVGID_00000062155211869533737280000011448036700217757077_"
   gradientUnits="userSpaceOnUse"
   x1="385.6499"
   y1="-570.2053"
   x2="570.4279"
   y2="-570.2053">
	<stop
   offset="1.080348e-03"
   style="stop-color:#22006A"
   id="stop103" />
	<stop
   offset="1"
   style="stop-color:#2BF6E7"
   id="stop105" />
</linearGradient>
<path
   style="fill:url(#SVGID_00000062155211869533737280000011448036700217757077_);"
   d="M558.51-536.21  c-11.19,17.36-30.67,28.86-52.86,28.86c-31.31,0-57.27-22.9-62.06-52.86c-0.52-3.26-0.8-6.6-0.8-10v-62.86  c0-12.02-3.72-23.17-10.06-32.38c-10.31-14.96-27.54-24.77-47.08-24.77h0v120c0,3.37,0.15,6.7,0.42,10  c5.1,61.51,56.78,110,119.58,110c23.84,0,46.08-6.99,64.77-19.02c-7.5-10.84-11.91-23.97-11.91-38.12V-536.21z"
   id="path108" />
<linearGradient
   id="SVGID_00000072268342585889439360000014691135094241257360_"
   gradientUnits="userSpaceOnUse"
   x1="440.8807"
   y1="-570.2053"
   x2="625.6588"
   y2="-570.2053">
	<stop
   offset="1.298195e-07"
   style="stop-color:#0D006A"
   id="stop110" />
	<stop
   offset="1"
   style="stop-color:#2BF6E7"
   id="stop112" />
</linearGradient>
<path
   style="fill:url(#SVGID_00000072268342585889439360000014691135094241257360_);"
   d="M505.65-690.21c-3.37,0-6.7,0.15-10,0.42  c-20.05,1.66-38.72,8.27-54.77,18.6c7.5,10.84,11.91,23.97,11.91,38.12v28.86c9.47-14.69,24.89-25.19,42.86-28.06  c3.26-0.52,6.6-0.8,10-0.8c34.72,0,62.86,28.14,62.86,62.86v62.86c0,12.02,3.72,23.17,10.06,32.38  c10.31,14.96,27.54,24.77,47.08,24.77h0v-120C625.66-636.38,571.83-690.21,505.65-690.21z"
   id="path115" />
<g
   id="g138">
	
		<linearGradient
   id="SVGID_00000011720330104899386250000006672603311010823336_"
   gradientUnits="userSpaceOnUse"
   x1="429.6275"
   y1="-706.86"
   x2="388.8358"
   y2="-761.0367">
		<stop
   offset="1.080348e-03"
   style="stop-color:#22006A"
   id="stop117" />
		<stop
   offset="1"
   style="stop-color:#2BF6E7"
   id="stop119" />
	</linearGradient>
	<path
   style="fill:url(#SVGID_00000011720330104899386250000006672603311010823336_);"
   d="M408.73-768.2   c-18.55,0-33.59,15.04-33.59,33.59c0,18.55,15.04,33.59,33.59,33.59c18.55,0,33.59-15.04,33.59-33.59   C442.32-753.16,427.28-768.2,408.73-768.2z M408.73-717.82c-9.28,0-16.79-7.52-16.79-16.79c0-9.28,7.52-16.79,16.79-16.79   s16.79,7.52,16.79,16.79C425.53-725.33,418.01-717.82,408.73-717.82z"
   id="path122" />
	
		<linearGradient
   id="SVGID_00000150085792213480161360000003906563888245053606_"
   gradientUnits="userSpaceOnUse"
   x1="398.2594"
   y1="-715.8301"
   x2="408.8229"
   y2="-788.0142">
		<stop
   offset="1.080348e-03"
   style="stop-color:#22006A"
   id="stop124" />
		<stop
   offset="1"
   style="stop-color:#2BF6E7"
   id="stop126" />
	</linearGradient>
	<path
   style="fill:url(#SVGID_00000150085792213480161360000003906563888245053606_);"
   d="M426.6-739.21c0,3.01-0.5,5.9-1.42,8.59   c-0.19,0.56-0.4,1.11-0.63,1.65c0.49-1.37,0.81-2.83,0.92-4.33c0.01-0.09,0.01-0.18,0.02-0.28c0.01-0.2,0.02-0.39,0.02-0.59   c0.01-0.1,0.01-0.2,0.01-0.3c0.01-0.1,0.01-0.2,0.01-0.29c-0.09-9.2-7.57-16.63-16.79-16.63c-9.27,0-16.79,7.52-16.79,16.79   c0,9.27,7.52,16.79,16.79,16.79c5.43,0,10.26-2.58,13.33-6.58c-4.51,6.6-11.96,10.91-20.37,10.91c-13.77,0-24.92-11.52-24.92-25.73   c0-2.56,0.36-5.04,1.04-7.37c0.72-2.5,1.8-4.83,3.18-6.95c0.01-0.02,0.02-0.04,0.04-0.07c0.92-1.4,1.97-2.71,3.13-3.9   c4.5-4.6,10.69-7.44,17.53-7.44C415.45-764.94,426.6-753.42,426.6-739.21z"
   id="path129" />
	
		<linearGradient
   id="SVGID_00000021832543338088039410000001642811279209888931_"
   gradientUnits="userSpaceOnUse"
   x1="376.7615"
   y1="-737.2311"
   x2="425.5163"
   y2="-737.2311">
		<stop
   offset="1.080348e-03"
   style="stop-color:#22006A"
   id="stop131" />
		<stop
   offset="1"
   style="stop-color:#2BF6E7"
   id="stop133" />
	</linearGradient>
	<path
   style="opacity:0.5;fill:url(#SVGID_00000021832543338088039410000001642811279209888931_);"
   d="M391.93-734.61   c0,9.27,7.52,16.79,16.79,16.79c5.43,0,10.26-2.58,13.33-6.58c-4.51,6.6-11.96,10.91-20.37,10.91c-13.77,0-24.92-11.52-24.92-25.73   c0-2.56,0.36-5.04,1.04-7.37c4.14-8.54,12.67-14.4,22.52-14.4c13.91,0,25.19,11.68,25.19,26.09v0.12   c-0.09-9.2-7.57-16.63-16.79-16.63C399.45-751.4,391.93-743.88,391.93-734.61z"
   id="path136" />
</g>
<linearGradient
   id="SVGID_00000066484953240424043080000003762693918941723323_"
   gradientUnits="userSpaceOnUse"
   x1="385.6499"
   y1="-412.3185"
   x2="625.6588"
   y2="-412.3185">
	<stop
   offset="1.080348e-03"
   style="stop-color:#22006A"
   id="stop140" />
	<stop
   offset="1"
   style="stop-color:#2BF6E7"
   id="stop142" />
</linearGradient>
<path
   style="fill:url(#SVGID_00000066484953240424043080000003762693918941723323_);"
   d="M543.14-404.44v6.69h-11.59  c-9.15,0-14.01-4.37-14.01-13.44c0-7.74,4.12-13.44,14.01-13.44h0.92v-2.39h6.44v22.59H543.14z M521.48-434  c0-2.01,1.56-3.39,3.59-3.39s3.59,1.39,3.59,3.39c0,2.24-1.66,3.44-3.59,3.44S521.48-431.75,521.48-434z M532.47-404.44v-13.51  h-2.48c-3.77,0-7.73,2.48-7.73,6.78c0,4.39,3.59,6.73,7.4,6.73H532.47z M531.46-434c0-2.01,1.56-3.39,3.59-3.39  c2.07,0,3.59,1.39,3.59,3.39c0,2.24-1.65,3.44-3.59,3.44S531.46-431.75,531.46-434z M542.26-404.44h9.61v-20.2h6.44v20.2h8.46v6.69  h-24.51V-404.44z M546.17-390.97c0-2.05,1.56-3.44,3.59-3.44c2.02,0,3.59,1.39,3.59,3.44c0,2.2-1.66,3.39-3.59,3.39  C547.82-387.58,546.17-388.78,546.17-390.97z M556.14-390.97c0-2.05,1.56-3.44,3.59-3.44c2.07,0,3.59,1.39,3.59,3.44  c0,2.2-1.65,3.39-3.59,3.39C557.8-387.58,556.14-388.78,556.14-390.97z M565.84-404.44h5.7v-20.2h6.44v26.89h-12.14V-404.44z   M571.08-391.16c0-2.1,1.66-3.53,3.77-3.53c2.16,0,3.77,1.43,3.77,3.53c0,2.34-1.75,3.58-3.77,3.58  C572.83-387.58,571.08-388.82,571.08-391.16z M582.58-387.68l-0.46-6.69c1.2,0.34,2.07,0.43,3.03,0.43c2.58,0,3.45-1.38,3.45-4.68  v-26.03h6.44v20.2H600v6.69h-5.01c-0.37,7.35-3.08,10.51-9.15,10.51C584.65-387.25,583.36-387.44,582.58-387.68z M599.08-404.44  h5.01c-1.01-2.2-1.93-4.97-1.93-7.98c0-4.54,1.93-8.02,4.6-10.31c2.11-1.81,5.1-2.82,8.37-2.82c3.4,0,6.44,1,9.56,2.63l-2.16,6.07  c-1.93-1.15-4.46-2.05-6.62-2.05c-2.11,0-3.77,0.53-5.01,1.62c-1.66,1.43-2.25,3.3-2.25,5.4c0,3.06,0.92,5.49,2.44,7.45h14.58v6.69  h-26.58V-404.44z M532.46-397.75c-9.84,0.13-16.78-3.72-16.78-13.05c0-7.95,6.23-13.84,16.78-13.84l0,0 M532.46-417.77h-1.67  c-4.02,0-8.24,2.55-8.24,6.97c0,4.51,3.86,6.36,7.93,6.36h1.98 M386.42-398.46v-26.71h7.06v26.71H386.42z M413.56-398.46v-16.18  c0-2.06-0.34-3.46-1.03-4.18c-0.69-0.72-1.86-1.09-3.53-1.09c-3.66,0-5.48,2.04-5.48,6.13v15.31h-7.06v-26.71h6.73v3.91  c0.83-1.52,1.94-2.67,3.31-3.45c1.37-0.78,3.15-1.17,5.32-1.17c1.27,0,2.44,0.19,3.53,0.57c1.09,0.38,2.02,0.95,2.8,1.71  c0.78,0.76,1.39,1.69,1.85,2.8c0.45,1.1,0.68,2.38,0.68,3.83v18.51H413.56z M424.91-398.46v-21.71h-3.96v-4.99h3.96  c0-6.51,3.78-9.77,11.35-9.77v5.7c-0.91,0-1.64,0.06-2.2,0.19c-0.56,0.13-1,0.35-1.33,0.68s-0.55,0.75-0.68,1.28  c-0.13,0.53-0.19,1.17-0.19,1.93h4.56v4.99h-4.56v21.71H424.91z M448.9-397.75c-2.17,0-4.11-0.34-5.81-1.03  c-1.7-0.69-3.14-1.65-4.32-2.88c-1.18-1.23-2.07-2.71-2.69-4.45c-0.62-1.74-0.92-3.64-0.92-5.7c0-2.1,0.32-4.02,0.95-5.75  c0.63-1.74,1.55-3.22,2.74-4.45c1.19-1.23,2.63-2.18,4.32-2.85c1.68-0.67,3.59-1.01,5.73-1.01c2.1,0,3.98,0.34,5.65,1.01  c1.66,0.67,3.08,1.61,4.26,2.82c1.18,1.21,2.08,2.69,2.71,4.42c0.63,1.74,0.95,3.67,0.95,5.81c0,2.14-0.32,4.06-0.95,5.78  c-0.63,1.72-1.54,3.19-2.71,4.42c-1.18,1.23-2.61,2.18-4.29,2.85C452.84-398.09,450.97-397.75,448.9-397.75z M448.9-403.67  c4.31,0,6.46-2.71,6.46-8.14c0-5.39-2.15-8.09-6.46-8.09c-4.31,0-6.46,2.7-6.46,8.09C442.44-406.38,444.6-403.67,448.9-403.67z   M480.82-417.08c-0.18-1.23-0.64-2.12-1.38-2.69c-0.74-0.56-1.87-0.84-3.39-0.84c-1.45,0-2.54,0.17-3.28,0.52  c-0.74,0.34-1.11,0.93-1.11,1.76c0,0.72,0.37,1.3,1.11,1.74c0.74,0.43,1.82,0.85,3.23,1.25c2.32,0.65,4.27,1.2,5.86,1.66  c1.59,0.45,2.87,0.99,3.83,1.6c0.96,0.61,1.65,1.38,2.06,2.31c0.42,0.92,0.62,2.16,0.62,3.72c0,2.39-1,4.37-2.99,5.94  c-1.99,1.57-4.94,2.36-8.85,2.36c-1.92,0-3.66-0.22-5.21-0.65c-1.56-0.43-2.89-1.06-3.99-1.87c-1.1-0.81-1.95-1.79-2.55-2.93  s-0.91-2.42-0.95-3.83h7.27c0,1.27,0.5,2.24,1.49,2.93c0.99,0.69,2.29,1.03,3.88,1.03c1.34,0,2.49-0.21,3.45-0.62  c0.96-0.42,1.44-1.06,1.44-1.93c0-0.98-0.35-1.68-1.06-2.12s-1.78-0.81-3.23-1.14c-2.61-0.58-4.7-1.18-6.3-1.82  c-1.59-0.63-2.83-1.33-3.72-2.09c-0.89-0.76-1.48-1.59-1.79-2.5c-0.31-0.9-0.46-1.92-0.46-3.04c0-1.01,0.21-1.97,0.62-2.88  c0.42-0.9,1.08-1.7,1.98-2.39c0.9-0.69,2.08-1.24,3.53-1.66c1.45-0.42,3.22-0.62,5.32-0.62c3.84,0,6.64,0.78,8.41,2.33  c1.77,1.56,2.75,3.71,2.93,6.46H480.82z M496.56-409.97c0.11,2.03,0.7,3.64,1.76,4.83c1.07,1.19,2.47,1.79,4.21,1.79  c1.16,0,2.18-0.26,3.07-0.79c0.89-0.52,1.46-1.26,1.71-2.2h7.27c-0.83,2.75-2.28,4.87-4.34,6.35c-2.06,1.48-4.52,2.23-7.38,2.23  c-8.9,0-13.35-4.85-13.35-14.55c0-2.06,0.29-3.93,0.87-5.59c0.58-1.66,1.42-3.09,2.52-4.29c1.1-1.19,2.45-2.11,4.04-2.74  c1.59-0.63,3.42-0.95,5.48-0.95c4.13,0,7.25,1.32,9.36,3.96c2.12,2.64,3.18,6.62,3.18,11.94H496.56z M507.69-414.42  c-0.04-0.98-0.21-1.84-0.52-2.58c-0.31-0.74-0.71-1.36-1.22-1.85c-0.51-0.49-1.09-0.85-1.74-1.09c-0.65-0.23-1.32-0.35-2.01-0.35  c-1.41,0-2.63,0.52-3.66,1.55c-1.03,1.03-1.62,2.47-1.76,4.32H507.69z M389.63-428.88c2.2,0,3.98-1.78,3.98-3.98  c0-2.2-1.78-3.98-3.98-3.98c-2.2,0-3.98,1.78-3.98,3.98C385.65-430.66,387.43-428.88,389.63-428.88z"
   id="path145" />
<g
   id="g149">
	<path
   d="M532.47-427.1h6.44v22.59h4.23v6.69h-10.67 M521.48-434.07c0-2.01,1.56-3.39,3.59-3.39s3.59,1.39,3.59,3.39   c0,2.24-1.66,3.44-3.59,3.44S521.48-431.83,521.48-434.07z M531.46-434.07c0-2.01,1.56-3.39,3.59-3.39c2.07,0,3.59,1.39,3.59,3.39   c0,2.24-1.65,3.44-3.59,3.44S531.46-431.83,531.46-434.07z M542.26-404.51h9.61v-20.2h6.44v20.2h8.46v6.69h-24.51V-404.51z    M546.17-391.04c0-2.05,1.56-3.44,3.59-3.44c2.02,0,3.59,1.39,3.59,3.44c0,2.2-1.66,3.39-3.59,3.39   C547.82-387.65,546.17-388.85,546.17-391.04z M556.14-391.04c0-2.05,1.56-3.44,3.59-3.44c2.07,0,3.59,1.39,3.59,3.44   c0,2.2-1.65,3.39-3.59,3.39C557.8-387.65,556.14-388.85,556.14-391.04z M565.84-404.51h5.7v-20.2h6.44v26.89h-12.14V-404.51z    M571.08-391.23c0-2.1,1.66-3.53,3.77-3.53c2.16,0,3.77,1.43,3.77,3.53c0,2.34-1.75,3.58-3.77,3.58   C572.83-387.65,571.08-388.89,571.08-391.23z M582.58-387.75l-0.46-6.69c1.2,0.34,2.07,0.43,3.03,0.43c2.58,0,3.45-1.38,3.45-4.68   v-26.03h6.44v20.2H600v6.69h-5.01c-0.37,7.35-3.08,10.51-9.15,10.51C584.65-387.32,583.36-387.51,582.58-387.75z M599.08-404.51   h5.01c-1.01-2.2-1.93-4.97-1.93-7.98c0-4.54,1.93-8.02,4.6-10.31c2.11-1.81,5.1-2.82,8.37-2.82c3.4,0,6.44,1,9.56,2.63l-2.16,6.07   c-1.93-1.15-4.46-2.05-6.62-2.05c-2.11,0-3.77,0.53-5.01,1.62c-1.66,1.43-2.25,3.3-2.25,5.4c0,3.06,0.92,5.49,2.44,7.45h14.58v6.69   h-26.58V-404.51z M532.46-424.71L532.46-424.71 M532.46-397.82"
   id="path147" />
</g>
<linearGradient
   id="SVGID_00000105405350685636907640000011391735603509291663_"
   gradientUnits="userSpaceOnUse"
   x1="461.3959"
   y1="-569.9614"
   x2="549.2305"
   y2="-569.9614">
	<stop
   offset="1.298195e-07"
   style="stop-color:#0D006A"
   id="stop151" />
	<stop
   offset="1"
   style="stop-color:#2BF6E7"
   id="stop153" />
</linearGradient>
<path
   style="fill:url(#SVGID_00000105405350685636907640000011391735603509291663_);"
   d="M466.76-551.67  c-0.81,0-1.58-0.47-1.91-1.27c-2.29-5.41-3.45-11.17-3.45-17.1c0-1.14,0.93-2.07,2.07-2.07c1.15,0,2.07,0.93,2.07,2.07  c0,5.37,1.05,10.58,3.12,15.48c0.45,1.05-0.05,2.27-1.1,2.72C467.3-551.72,467.03-551.67,466.76-551.67z M544.47-547.99  c1.96-4.17,3.25-8.59,3.82-13.15c0.14-1.14-0.66-2.17-1.8-2.32c-1.13-0.14-2.17,0.66-2.31,1.8c-0.52,4.13-1.68,8.13-3.46,11.91  c-0.49,1.04-0.04,2.27,0.99,2.76c0.29,0.13,0.58,0.2,0.88,0.2C543.38-546.8,544.12-547.24,544.47-547.99z M549.23-570.03  c0-17.69-10.53-33.57-26.82-40.46c-1.05-0.45-2.27,0.05-2.72,1.1c-0.45,1.06,0.05,2.27,1.1,2.72c14.76,6.24,24.29,20.63,24.29,36.65  c0,1.15,0.93,2.07,2.07,2.07S549.23-568.89,549.23-570.03z M467.74-583.11c5.56-15.97,20.65-26.7,37.57-26.7  c1.15,0,2.07-0.93,2.07-2.07c0-1.15-0.93-2.07-2.07-2.07c-18.68,0-35.35,11.85-41.49,29.48c-0.38,1.08,0.2,2.26,1.28,2.64  c0.23,0.08,0.46,0.12,0.68,0.12C466.64-581.71,467.44-582.25,467.74-583.11z M472.34-563.89c1.14-0.14,1.95-1.17,1.81-2.31  c-0.15-1.26-0.23-2.55-0.23-3.83c0-11.14,5.99-21.55,15.63-27.16c0.99-0.58,1.32-1.85,0.75-2.83c-0.58-0.99-1.85-1.32-2.83-0.75  c-10.91,6.35-17.69,18.13-17.69,30.74c0,1.45,0.09,2.9,0.26,4.33c0.13,1.05,1.02,1.82,2.06,1.82  C472.17-563.88,472.25-563.88,472.34-563.89z M527.52-595.17c0.7-0.9,0.54-2.21-0.36-2.91c-6.29-4.91-13.85-7.5-21.85-7.5  c-1.72,0-3.45,0.12-5.14,0.37c-1.13,0.16-1.92,1.22-1.75,2.35c0.16,1.13,1.22,1.92,2.35,1.75c1.49-0.22,3.02-0.33,4.54-0.33  c7.07,0,13.74,2.29,19.3,6.63c0.38,0.3,0.83,0.44,1.27,0.44C526.5-594.37,527.11-594.64,527.52-595.17z M528.93-533.13  c6.05-7.38,10.33-17.28,11.74-27.18c1.55-10.86-0.41-21.18-5.51-29.05c-0.62-0.96-1.91-1.24-2.87-0.61  c-0.96,0.62-1.23,1.91-0.61,2.87c9.99,15.41,4.82,38.2-5.95,51.34c-0.73,0.89-0.6,2.19,0.29,2.92c0.39,0.32,0.85,0.47,1.31,0.47  C527.93-532.37,528.52-532.63,528.93-533.13z M507.54-555.36c1.14-0.04,2.04-1.01,1.99-2.15c-0.16-4.31-0.78-8.48-1.83-12.42  c-0.3-1.11-1.43-1.76-2.54-1.47c-1.11,0.3-1.76,1.43-1.47,2.54c0.97,3.63,1.54,7.5,1.69,11.5c0.04,1.12,0.96,1.99,2.07,1.99  C507.48-555.36,507.51-555.36,507.54-555.36z M504.57-527.42c2.91-7.27,4.73-15.07,5.26-22.57c0.08-1.14-0.78-2.13-1.92-2.21  c-1.15-0.08-2.13,0.78-2.21,1.92c-0.5,7.07-2.22,14.45-4.97,21.32c-0.43,1.06,0.09,2.27,1.15,2.69c0.25,0.1,0.51,0.15,0.77,0.15  C503.46-526.11,504.24-526.61,504.57-527.42z M474.57-543.4c1.29-4.51,1.66-9.46,1.06-14.32c-0.14-1.14-1.18-1.94-2.31-1.8  c-1.14,0.14-1.94,1.18-1.8,2.31c0.53,4.31,0.21,8.69-0.93,12.66c-0.32,1.1,0.32,2.25,1.42,2.57c0.19,0.05,0.38,0.08,0.57,0.08  C473.47-541.9,474.3-542.5,474.57-543.4z M532.74-570.03c0-9.05-4.46-17.51-11.93-22.63c-0.95-0.65-2.24-0.41-2.88,0.54  c-0.65,0.94-0.41,2.23,0.54,2.88c6.34,4.35,10.13,11.53,10.13,19.22c0,1.15,0.93,2.07,2.07,2.07  C531.81-567.96,532.74-568.89,532.74-570.03z M482.03-570.03c0-12.84,10.45-23.28,23.28-23.28c0.8,0,1.61,0.04,2.39,0.12  c1.14,0.12,2.16-0.71,2.27-1.85c0.12-1.14-0.71-2.16-1.85-2.27c-0.93-0.09-1.88-0.14-2.82-0.14c-15.12,0-27.43,12.3-27.43,27.43  c0,1.15,0.93,2.07,2.07,2.07C481.1-567.96,482.03-568.89,482.03-570.03z M481.25-536.52c1.86-4.96,2.8-10.18,2.8-15.52  c0-3.49-0.41-6.96-1.21-10.33c-0.27-1.11-1.39-1.8-2.5-1.53c-1.11,0.27-1.8,1.39-1.53,2.5c0.73,3.05,1.1,6.2,1.1,9.36  c0,4.84-0.85,9.57-2.54,14.06c-0.4,1.07,0.14,2.27,1.21,2.67c0.24,0.09,0.49,0.13,0.73,0.13  C480.15-535.18,480.94-535.69,481.25-536.52z M512-526.34c11.43-7.86,18.77-19.89,20.65-33.86c0.15-1.14-0.64-2.18-1.78-2.33  c-1.14-0.15-2.18,0.64-2.33,1.78c-1.72,12.8-8.43,23.81-18.89,31c-0.94,0.65-1.18,1.94-0.53,2.88c0.4,0.58,1.05,0.9,1.71,0.9  C511.23-525.97,511.64-526.09,512-526.34z M492.24-576.84c2.55-4.89,7.56-7.93,13.08-7.93c3.68,0,7.2,1.36,9.92,3.84  c0.85,0.77,2.16,0.71,2.93-0.14c0.77-0.85,0.71-2.16-0.14-2.93c-3.48-3.17-8-4.92-12.71-4.92c-7.06,0-13.48,3.89-16.75,10.16  c-0.53,1.01-0.14,2.27,0.88,2.8c0.31,0.16,0.63,0.24,0.96,0.24C491.14-575.73,491.87-576.14,492.24-576.84z M491.13-548.21h0.03  c1.13,0,2.07-0.91,2.06-2.04c-0.01-6.31-0.87-12.59-2.54-18.65c-0.36-1.31-1.91-1.98-3.17-1.16c-0.76,0.49-1.04,1.48-0.8,2.35  c1.56,5.66,2.35,11.52,2.37,17.41C489.07-549.14,489.98-548.21,491.13-548.21z M489.09-531.5c1.51-3.32,2.57-6.83,3.16-10.42  c0.19-1.13-0.58-2.2-1.71-2.38c-1.13-0.19-2.2,0.58-2.38,1.71c-0.53,3.23-1.49,6.39-2.85,9.38c-0.47,1.04-0.01,2.27,1.03,2.75  c0.28,0.13,0.57,0.19,0.86,0.19C487.99-530.28,488.74-530.73,489.09-531.5z M525.96-559.16c0.34-5.44-0.39-10.78-2.18-15.88  c-0.38-1.08-1.56-1.65-2.64-1.27c-1.08,0.38-1.65,1.56-1.27,2.64c1.6,4.57,2.26,9.37,1.95,14.25c-0.07,1.14,0.8,2.13,1.94,2.2  c0.04,0,0.09,0,0.13,0C524.98-557.22,525.89-558.06,525.96-559.16z M496.4-528.75c1.05-2.36,1.95-4.81,2.66-7.29  c0.32-1.1-0.32-2.25-1.42-2.57c-1.1-0.32-2.25,0.32-2.57,1.41c-0.66,2.3-1.5,4.57-2.47,6.76c-0.47,1.05,0,2.27,1.05,2.74  c0.27,0.12,0.56,0.18,0.84,0.18C495.3-527.52,496.06-527.98,496.4-528.75z M500.48-542.8c0.53-3.54,0.69-7.15,0.46-10.75  c-0.11-1.71-0.31-3.44-0.59-5.13c-0.19-1.13-1.26-1.89-2.38-1.71c-1.13,0.19-1.89,1.26-1.71,2.39c0.26,1.55,0.44,3.13,0.54,4.71  c0.21,3.31,0.07,6.63-0.42,9.87c-0.17,1.13,0.61,2.19,1.74,2.36c0.11,0.02,0.21,0.02,0.31,0.02  C499.44-541.03,500.32-541.77,500.48-542.8z M518.7-556.65c0-11.18-3.51-24.25-13.39-24.25c-5.99,0-10.86,4.87-10.86,10.86  c0,0.2,0.01,0.41,0.02,0.61c0.06,1.14,1.03,2.02,2.19,1.95c1.14-0.06,2.02-1.04,1.95-2.19c-0.01-0.12-0.01-0.25-0.01-0.37  c0-3.7,3.01-6.72,6.72-6.72c7.31,0,9.25,13.15,9.25,20.1c0,1.15,0.93,2.07,2.07,2.07C517.78-554.58,518.7-555.5,518.7-556.65z   M514.57-537.14c1.72-3.86,2.92-7.93,3.57-12.11c0.18-1.13-0.6-2.19-1.73-2.37c-1.13-0.18-2.19,0.6-2.37,1.73  c-0.59,3.81-1.69,7.53-3.26,11.06c-0.47,1.05,0,2.27,1.05,2.74c0.27,0.12,0.56,0.18,0.84,0.18  C513.47-535.91,514.23-536.37,514.57-537.14z"
   id="path156" />
</svg>
